{
  "asset": {
    "version": "2.0",
    "generator": "THREE.GLTFExporter"
  },
  "scenes": [
    {
      "nodes": [
        0
      ]
    }
  ],
  "scene": 0,
  "nodes": [
    {
      "children": [
        8
      ],
      "matrix": [
        0.01,
        0,
        0,
        0,
        0,
        0.01,
        0,
        0,
        0,
        0,
        0.01,
        0,
        0,
        0,
        0,
        1
      ]
    },
    {
      "matrix": [
        -0.30803554124848,
        -0.0030052002858507202,
        0.3100454023293572,
        0,
        -0.32486507486691163,
        1.0647513095650267,
        -0.3124387509110309,
        0,
        -0.2847049646564885,
        -0.17035228940663097,
        -0.2845105586800649,
        0,
        -8.677831870165146,
        42.56920455371515,
        -18.576503654257436,
        0.9999999999999998
      ],
      "name": "Cube 17",
      "mesh": 0
    },
    {
      "matrix": [
        0.20085121832384945,
        -0.3143817084474359,
        -0.22769718245526857,
        0,
        0.9882900925098411,
        0.5983769473924542,
        0.04558906706379449,
        0,
        0.10544369128804959,
        -0.20254533546957668,
        0.3726661944067889,
        0,
        41.591337335839185,
        22.5561804615204,
        6.223175903366606,
        1
      ],
      "name": "Cube 16",
      "mesh": 1
    },
    {
      "matrix": [
        0.43706186908327993,
        0,
        0,
        0,
        0,
        0.43579888185229454,
        0.03320259000228587,
        0,
        0,
        -0.03320259000228587,
        0.43579888185229454,
        0,
        0.4237345297773487,
        -2.0908879032490404,
        -2.317983283804736,
        1
      ],
      "name": "Cube 15",
      "mesh": 2
    },
    {
      "name": "Fly",
      "children": [
        1,
        2,
        3
      ]
    },
    {
      "matrix": [
        0.5883484054145521,
        0.39223227027636803,
        -0.7071067811865475,
        0,
        -0.554700196225229,
        0.8320502943378437,
        0,
        0,
        0.588348405414552,
        0.392232270276368,
        0.7071067811865476,
        0,
        0,
        0,
        0,
        1
      ],
      "name": "Directional Light",
      "extensions": {
        "KHR_lights_punctual": {
          "light": 0
        }
      }
    },
    {
      "matrix": [
        0.9984044476362763,
        -4.336808689942018e-19,
        0.05646732630558887,
        0,
        0.0024186068647473885,
        0.9990822900480191,
        -0.042763630028794575,
        0,
        -0.05641550567827648,
        0.042831970680857354,
        0.9974882019385786,
        0,
        -56.41550567827653,
        42.83197068085741,
        997.4882019385797,
        1
      ],
      "camera": 0
    },
    {
      "matrix": [
        1,
        0,
        0,
        0,
        0,
        1,
        0,
        0,
        0,
        0,
        1,
        0,
        0,
        1,
        0,
        1
      ],
      "name": "Default Ambient Light"
    },
    {
      "name": "Scene 1",
      "children": [
        4,
        5,
        6,
        7
      ]
    }
  ],
  "bufferViews": [
    {
      "buffer": 0,
      "byteOffset": 0,
      "byteLength": 1152,
      "target": 34962,
      "byteStride": 12
    },
    {
      "buffer": 0,
      "byteOffset": 1152,
      "byteLength": 1152,
      "target": 34962,
      "byteStride": 12
    },
    {
      "buffer": 0,
      "byteOffset": 2304,
      "byteLength": 576,
      "target": 34963
    },
    {
      "buffer": 0,
      "byteOffset": 2880,
      "byteLength": 1152,
      "target": 34962,
      "byteStride": 12
    },
    {
      "buffer": 0,
      "byteOffset": 4032,
      "byteLength": 1152,
      "target": 34962,
      "byteStride": 12
    },
    {
      "buffer": 0,
      "byteOffset": 5184,
      "byteLength": 576,
      "target": 34963
    },
    {
      "buffer": 0,
      "byteOffset": 5760,
      "byteLength": 4608,
      "target": 34962,
      "byteStride": 12
    },
    {
      "buffer": 0,
      "byteOffset": 10368,
      "byteLength": 4608,
      "target": 34962,
      "byteStride": 12
    },
    {
      "buffer": 0,
      "byteOffset": 14976,
      "byteLength": 2304,
      "target": 34963
    }
  ],
  "buffers": [
    {
      "byteLength": 17280,
      "uri": "data:application/octet-stream;base64,"
    }
  ],
  "accessors": [
    {
      "bufferView": 0,
      "componentType": 5126,
      "count": 96,
      "max": [
        50,
        50,
        9.756584167480469
      ],
      "min": [
        -50,
        -41.06278610229492,
        -9.756584167480469
      ],
      "type": "VEC3"
    },
    {
      "bufferView": 1,
      "componentType": 5126,
      "count": 96,
      "max": [
        0.43185046315193176,
        0.4379924237728119,
        0.9981265068054199
      ],
      "min": [
        -0.43185046315193176,
        -0.43766146898269653,
        -0.9981265068054199
      ],
      "type": "VEC3"
    },
    {
      "bufferView": 2,
      "componentType": 5125,
      "count": 144,
      "max": [
        95
      ],
      "min": [
        0
      ],
      "type": "SCALAR"
    },
    {
      "bufferView": 3,
      "componentType": 5126,
      "count": 96,
      "max": [
        50,
        50,
        9.756584167480469
      ],
      "min": [
        -50,
        -41.06278610229492,
        -9.756584167480469
      ],
      "type": "VEC3"
    },
    {
      "bufferView": 4,
      "componentType": 5126,
      "count": 96,
      "max": [
        0.43185046315193176,
        0.4379924237728119,
        0.9981265068054199
      ],
      "min": [
        -0.43185046315193176,
        -0.43766146898269653,
        -0.9981265068054199
      ],
      "type": "VEC3"
    },
    {
      "bufferView": 5,
      "componentType": 5125,
      "count": 144,
      "max": [
        95
      ],
      "min": [
        0
      ],
      "type": "SCALAR"
    },
    {
      "bufferView": 6,
      "componentType": 5126,
      "count": 384,
      "max": [
        43.92361068725586,
        43.92361068725586,
        43.92361068725586
      ],
      "min": [
        -43.92361068725586,
        -43.92361068725586,
        -43.92361068725586
      ],
      "type": "VEC3"
    },
    {
      "bufferView": 7,
      "componentType": 5126,
      "count": 384,
      "max": [
        1,
        1,
        1
      ],
      "min": [
        -1,
        -1,
        -1
      ],
      "type": "VEC3"
    },
    {
      "bufferView": 8,
      "componentType": 5125,
      "count": 576,
      "max": [
        383
      ],
      "min": [
        0
      ],
      "type": "SCALAR"
    }
  ],
  "meshes": [
    {
      "primitives": [
        {
          "mode": 4,
          "attributes": {
            "POSITION": 0,
            "NORMAL": 1
          },
          "extras": {
            "type": "SubdivGeometry",
            "parameters": {
              "width": 100,
              "height": 91.06278610229492,
              "depth": 19.513168334960938
            }
          },
          "indices": 2
        }
      ]
    },
    {
      "primitives": [
        {
          "mode": 4,
          "attributes": {
            "POSITION": 3,
            "NORMAL": 4
          },
          "extras": {
            "type": "SubdivGeometry",
            "parameters": {
              "width": 100,
              "height": 91.06278610229492,
              "depth": 19.513168334960938
            }
          },
          "indices": 5
        }
      ]
    },
    {
      "primitives": [
        {
          "mode": 4,
          "attributes": {
            "POSITION": 6,
            "NORMAL": 7
          },
          "extras": {
            "type": "SubdivGeometry",
            "parameters": {
              "width": 100,
              "height": 100,
              "depth": 100
            }
          },
          "indices": 8
        }
      ]
    }
  ],
  "extensions": {
    "KHR_lights_punctual": {
      "lights": [
        {
          "name": "Directional Light",
          "color": [
            1,
            1,
            1
          ],
          "intensity": 0.7,
          "type": "directional"
        }
      ]
    }
  },
  "cameras": [
    {
      "type": "orthographic",
      "orthographic": {
        "xmag": 7.690000000000001,
        "ymag": 3.4750000000000005,
        "zfar": 100000,
        "znear": 0
      }
    }
  ],
  "extensionsUsed": [
    "KHR_lights_punctual"
  ]
}